<?xml version="1.0" encoding="UTF-8" standalone="no"?>
<!-- Created with Inkscape (http://www.inkscape.org/) -->

<svg
   width="192"
   height="192"
   viewBox="0 0 50.800001 50.800001"
   version="1.1"
   id="svg5"
   inkscape:version="1.2.1 (9c6d41e410, 2022-07-14)"
   sodipodi:docname="fwio.svg"
   inkscape:export-filename="fwio-192*192.png"
   inkscape:export-xdpi="96"
   inkscape:export-ydpi="96"
   xmlns:inkscape="http://www.inkscape.org/namespaces/inkscape"
   xmlns:sodipodi="http://sodipodi.sourceforge.net/DTD/sodipodi-0.dtd"
   xmlns="http://www.w3.org/2000/svg"
   xmlns:svg="http://www.w3.org/2000/svg">
  <sodipodi:namedview
     id="namedview7"
     pagecolor="#ffffff"
     bordercolor="#000000"
     borderopacity="0.25"
     inkscape:showpageshadow="2"
     inkscape:pageopacity="0.0"
     inkscape:pagecheckerboard="0"
     inkscape:deskcolor="#d1d1d1"
     inkscape:document-units="mm"
     showgrid="false"
     inkscape:zoom="2.9148709"
     inkscape:cx="81.135668"
     inkscape:cy="73.931233"
     inkscape:window-width="1920"
     inkscape:window-height="1001"
     inkscape:window-x="-9"
     inkscape:window-y="-9"
     inkscape:window-maximized="1"
     inkscape:current-layer="layer1" />
  <defs
     id="defs2" />
  <g
     inkscape:label="图层 1"
     inkscape:groupmode="layer"
     id="layer1">
    <path
       style="fill:#008080;stroke:#000000;stroke-width:0"
       id="path613"
       d="m 16.338493,26.452837 c 0.332522,0.05084 1.128216,0.186739 1.404861,0.151346 1.324107,-0.169397 2.073191,-0.595439 3.123897,-1.513798 2.066774,-1.806438 2.530793,-2.864108 4.12418,-5.220289 0.615669,-1.229383 1.302572,-2.425603 1.847001,-3.688152 0.962103,-2.231129 1.778575,-4.659712 1.98011,-7.1052421 C 28.930116,7.7228074 28.860532,5.93588 27.894727,4.8010231 27.600765,4.4556085 27.104502,4.3555572 26.709384,4.1328246 c -0.471954,0.067597 -0.972292,0.027999 -1.415872,0.2027887 -0.862588,0.3399019 -1.656501,1.290093 -2.138311,2.0212552 -0.616434,0.9354585 -1.277307,2.4617684 -1.552699,3.5057225 -0.271813,1.030379 -0.409846,2.091476 -0.614768,3.137214 -0.135691,1.441133 -0.317861,2.878645 -0.40707,4.3234 -0.107043,1.733557 -0.161323,3.470672 -0.181439,5.207417 -0.02187,1.887725 -0.05484,3.778664 0.05553,5.663289 0.21804,3.723628 0.705668,7.386527 1.791151,10.964994 0.392775,1.294838 1.015925,2.508272 1.523887,3.762409 0.541126,0.714453 0.954384,1.546946 1.623385,2.143349 0.897134,0.799789 1.942953,0.884071 2.796086,-0.0176 0.39271,-0.415048 0.58701,-0.992426 0.75706,-1.537921 0.506834,-1.62586 0.418971,-3.279091 0.471142,-4.956222 -0.08989,-3.521879 -0.642844,-7.009722 -1.784262,-10.35005 -0.613137,-1.794325 -1.512274,-3.908584 -2.752373,-5.410112 -0.417423,-0.505421 -0.992607,-0.856447 -1.488905,-1.284669 -0.501866,-0.120157 -0.989634,-0.370101 -1.505593,-0.360473 -1.643559,0.03066 -2.932769,1.270214 -3.910839,2.435355 -0.361609,0.430772 -1.141409,1.58356 -1.482185,2.078152 -0.271783,0.269572 -0.515137,0.57121 -0.81535,0.808708 -0.539255,0.426606 -1.315559,0.808606 -1.968149,1.025878 -0.279086,0.09292 -0.569101,0.153084 -0.859493,0.199935 -0.159956,0.02582 -0.630805,-0.05511 -0.48577,0.0171 0.227972,0.113528 0.503347,0.07799 0.755022,0.116967 6.250803,-1.248428 12.452656,-2.751297 18.546436,-4.62706 1.240434,-0.381823 2.466811,-0.807906 3.700216,-1.21186 0.856263,-0.321751 1.712524,-0.643499 2.568785,-0.965244 0.03843,-0.0227 -0.282574,-0.566155 -0.321,-0.543459 v 0 c -0.872385,0.281883 -1.744775,0.563766 -2.61716,0.845645 -4.189607,1.274243 -8.384883,2.512196 -12.616214,3.64233 -2.447365,0.653661 -4.91289,1.238498 -7.357384,1.902818 -0.709645,0.192856 -1.411094,0.414698 -2.11664,0.622046 -0.147046,0.196054 -0.492803,0.348604 -0.441135,0.588167 0.0399,0.184979 0.380386,0.02553 0.567699,-0.0015 1.083414,-0.155526 2.158291,-0.641887 3.006055,-1.332518 0.313467,-0.255368 0.567676,-0.575883 0.851514,-0.863823 1.028491,-1.440442 2.0388,-3.028875 3.647939,-3.894901 0.355514,-0.191338 0.73911,-0.380962 1.142248,-0.402814 0.443741,-0.02406 0.870348,0.180087 1.305521,0.27013 0.446825,0.404822 0.969212,0.73939 1.340472,1.214466 1.150723,1.472495 2.002061,3.585902 2.586479,5.30014 1.134104,3.326588 1.725777,6.664733 1.866553,10.171662 -0.0026,1.804248 0.211756,4.527975 -0.888448,6.154376 -0.546911,0.808489 -1.215993,0.794831 -1.966524,0.05772 -0.597277,-0.586595 -0.947649,-1.380323 -1.421475,-2.070485 -0.455554,-1.230881 -1.01121,-2.429212 -1.366658,-3.692641 -0.975653,-3.467912 -1.494828,-7.230327 -1.727643,-10.810669 -0.121849,-1.873883 -0.102267,-3.754685 -0.106515,-5.632525 -0.0039,-1.724663 0.0174,-3.449898 0.08204,-5.173349 0.05355,-1.427844 0.181629,-2.851914 0.272442,-4.277872 0.160333,-1.025675 0.248761,-2.0652 0.480997,-3.077019 0.238555,-1.0393544 0.839208,-2.473529 1.432358,-3.4008388 0.500369,-0.7822656 1.066729,-1.4400708 1.907493,-1.8645832 0.292192,-0.1475312 0.63149,-0.172574 0.947237,-0.2588605 0.328684,0.1623741 0.751175,0.2056373 0.986041,0.4871213 0.869248,1.0417793 0.838316,2.7919188 0.712258,3.9785644 -0.400792,3.7727248 -2.078481,7.2359178 -3.781388,10.5609418 -1.487546,2.314811 -1.927602,3.354732 -3.855224,5.169508 -0.709592,0.668053 -1.620276,1.333761 -2.62024,1.510547 -0.14655,0.02591 -1.135831,-0.05156 -1.387129,-0.06957 -0.0225,-0.0099 -0.163595,0.308388 -0.141083,0.318365 z" />
  </g>
</svg>
