<svg xmlns="http://www.w3.org/2000/svg" width="192" height="192" viewBox="0 0 50.8 50.8"><path d="M16.338 26.453c.333.05 1.129.187 1.405.151 1.324-.17 2.074-.595 3.124-1.514 2.067-1.806 2.531-2.864 4.124-5.22.616-1.23 1.303-2.426 1.847-3.688.963-2.231 1.779-4.66 1.98-7.105.112-1.354.043-3.141-.923-4.276-.294-.345-.79-.445-1.186-.668-.472.067-.972.028-1.415.203-.863.34-1.657 1.29-2.139 2.02-.616.936-1.277 2.463-1.552 3.507-.272 1.03-.41 2.091-.615 3.137-.136 1.44-.318 2.878-.407 4.323a103.96 103.96 0 0 0-.182 5.208c-.022 1.887-.055 3.778.056 5.663.218 3.724.705 7.386 1.79 10.965.394 1.295 1.017 2.508 1.525 3.762.54.715.954 1.547 1.623 2.144.897.8 1.943.884 2.796-.018.393-.415.587-.992.757-1.538.507-1.626.42-3.279.471-4.956-.09-3.522-.642-7.01-1.784-10.35-.613-1.794-1.512-3.909-2.752-5.41-.418-.506-.993-.857-1.49-1.285-.5-.12-.989-.37-1.505-.36-1.643.03-2.932 1.27-3.91 2.435-.362.43-1.142 1.584-1.483 2.078-.271.27-.515.571-.815.809-.54.426-1.316.808-1.968 1.026a5.53 5.53 0 0 1-.86.2c-.16.025-.63-.055-.485.017.228.113.503.078.755.117 6.25-1.249 12.452-2.752 18.546-4.627 1.24-.382 2.467-.808 3.7-1.212l2.569-.965c.038-.023-.283-.567-.321-.544l-2.617.846c-4.19 1.274-8.385 2.512-12.616 3.642-2.448.654-4.913 1.239-7.358 1.903-.71.193-1.41.415-2.116.622-.147.196-.493.349-.442.588.04.185.38.026.568-.001a6.274 6.274 0 0 0 3.006-1.333c.314-.255.568-.576.852-.864 1.028-1.44 2.039-3.029 3.648-3.895.355-.191.739-.38 1.142-.402.444-.025.87.18 1.305.27.447.404.97.74 1.34 1.214 1.152 1.473 2.003 3.586 2.587 5.3 1.135 3.327 1.726 6.665 1.867 10.172-.003 1.804.212 4.528-.888 6.154-.547.809-1.216.795-1.967.058-.597-.587-.948-1.38-1.421-2.07-.456-1.231-1.012-2.43-1.367-3.693-.976-3.468-1.495-7.23-1.728-10.81-.122-1.875-.102-3.755-.106-5.633-.004-1.725.017-3.45.082-5.174.053-1.427.181-2.852.272-4.278.16-1.025.249-2.065.481-3.077.239-1.039.84-2.473 1.433-3.4.5-.783 1.066-1.44 1.907-1.865.292-.147.632-.173.947-.259.329.163.751.206.986.487.87 1.042.839 2.792.713 3.979-.401 3.773-2.079 7.236-3.782 10.56-1.487 2.316-1.927 3.356-3.855 5.17-.71.668-1.62 1.334-2.62 1.51-.147.027-1.136-.05-1.387-.069-.023-.01-.164.309-.142.319z" style="fill:teal;stroke:#000;stroke-width:0"/></svg>