<?xml version="1.0" encoding="UTF-8" standalone="no"?>
<!-- Created with Inkscape (http://www.inkscape.org/) -->

<svg
   width="210mm"
   height="297mm"
   viewBox="0 0 210 297"
   version="1.1"
   id="svg5"
   inkscape:version="1.2.1 (9c6d41e410, 2022-07-14)"
   sodipodi:docname="fwio.svg"
   xmlns:inkscape="http://www.inkscape.org/namespaces/inkscape"
   xmlns:sodipodi="http://sodipodi.sourceforge.net/DTD/sodipodi-0.dtd"
   xmlns="http://www.w3.org/2000/svg"
   xmlns:svg="http://www.w3.org/2000/svg">
  <sodipodi:namedview
     id="namedview7"
     pagecolor="#ffffff"
     bordercolor="#000000"
     borderopacity="0.25"
     inkscape:showpageshadow="2"
     inkscape:pageopacity="0.0"
     inkscape:pagecheckerboard="0"
     inkscape:deskcolor="#d1d1d1"
     inkscape:document-units="mm"
     showgrid="false"
     inkscape:zoom="0.72871773"
     inkscape:cx="417.17113"
     inkscape:cy="537.24506"
     inkscape:window-width="1920"
     inkscape:window-height="1001"
     inkscape:window-x="-9"
     inkscape:window-y="-9"
     inkscape:window-maximized="1"
     inkscape:current-layer="layer1" />
  <defs
     id="defs2" />
  <g
     inkscape:label="图层 1"
     inkscape:groupmode="layer"
     id="layer1">
    <path
       style="fill:#008080;stroke:#000000;stroke-width:0"
       id="path613"
       d="m 40.47735,155.75759 c 2.300813,0.35179 7.806453,1.2921 9.720638,1.04721 9.161881,-1.17211 14.34501,-4.12002 21.615148,-10.47441 14.300609,-12.49927 17.511297,-19.8176 28.536404,-36.1207 4.25999,-8.50645 9.01287,-16.783446 12.77993,-25.519391 6.65708,-15.437832 12.30648,-32.241898 13.70096,-49.163228 0.77201,-9.367989 0.29058,-21.732258 -6.39215,-29.584663 -2.034,-2.3900232 -5.4678,-3.0823072 -8.20173,-4.6234587 -3.26559,0.4677171 -6.72757,0.1937348 -9.79682,1.4031541 -5.968504,2.3518794 -11.46182,8.9265276 -14.795603,13.9856506 -4.265284,6.472709 -8.83806,17.03369 -10.743577,24.257111 -1.880748,7.129489 -2.835843,14.471528 -4.253757,21.707292 -0.938881,9.97162 -2.199366,19.918181 -2.81663,29.914861 -0.740664,11.994982 -1.116242,24.014592 -1.255426,36.031632 -0.151307,13.06171 -0.379393,26.14567 0.384188,39.18593 1.508681,25.76487 4.882728,51.10953 12.393502,75.86998 2.717722,8.95936 7.029475,17.35546 10.544213,26.0332 3.744205,4.9435 6.603655,10.70377 11.23267,14.83045 6.20753,5.53397 13.44386,6.11715 19.34693,-0.12177 2.71727,-2.87184 4.06169,-6.86689 5.23832,-10.64133 3.50693,-11.24979 2.89898,-22.68898 3.25996,-34.29353 -0.62196,-24.3689 -4.44801,-48.5023 -12.34582,-71.615 -4.24247,-12.41546 -10.46386,-27.04463 -19.044464,-37.43413 -2.888269,-3.49716 -6.868135,-5.92601 -10.302167,-8.889 -3.472554,-0.8314 -6.847567,-2.56084 -10.417633,-2.49422 -11.372258,0.21215 -20.292681,8.78898 -27.060232,16.85093 -2.502073,2.98063 -7.897745,10.95711 -10.255666,14.37934 -1.880547,1.86524 -3.564386,3.95236 -5.641646,5.59568 -3.73126,2.95181 -9.102735,5.59498 -13.618194,7.09835 -1.931075,0.64294 -3.937778,1.05923 -5.947084,1.38341 -1.106779,0.17864 -4.364717,-0.38132 -3.361181,0.11832 1.577404,0.78553 3.482801,0.53956 5.224212,0.80933 43.251121,-8.63824 86.163545,-19.03702 128.328175,-32.01597 8.58292,-2.64195 17.06858,-5.59014 25.60287,-8.38522 5.92473,-2.22628 11.84945,-4.45255 17.77417,-6.6788 0.26589,-0.15705 -1.95521,-3.91739 -2.2211,-3.76034 v 0 c -6.03628,1.95042 -12.0726,3.90085 -18.10889,5.85126 -28.9891,8.81686 -58.01743,17.38261 -87.295237,25.20233 -16.934032,4.52287 -33.993716,8.56953 -50.907874,13.16615 -4.910247,1.33443 -9.763769,2.86942 -14.64565,4.30412 -1.017448,1.35655 -3.409846,2.41209 -3.052338,4.0697 0.276057,1.27992 2.631999,0.17661 3.928069,-0.01 7.49646,-1.07613 14.933844,-4.4414 20.799771,-9.22008 2.16897,-1.76696 3.927914,-3.9847 5.89187,-5.97704 7.11643,-9.96684 14.107051,-20.95766 25.241149,-26.94995 2.459906,-1.32392 5.114117,-2.63599 7.903547,-2.78719 3.070369,-0.1665 6.02219,1.24608 9.033278,1.86911 3.09171,2.80108 6.706254,5.11605 9.275116,8.40324 7.962179,10.18862 13.852839,24.8119 17.896599,36.67321 7.84719,23.01762 11.94115,46.11522 12.91522,70.38068 -0.018,12.48411 1.4652,31.33037 -6.14743,42.58391 -3.78424,5.59417 -8.41381,5.49967 -13.60695,0.39938 -4.13273,-4.05883 -6.55706,-9.55086 -9.835599,-14.32629 -3.152111,-8.51682 -6.996856,-16.80842 -9.456306,-25.55045 -6.750815,-23.9955 -10.343148,-50.02873 -11.954055,-74.80216 -0.84311,-12.96594 -0.707588,-25.97975 -0.737015,-38.97307 -0.02695,-11.93345 0.120387,-23.87084 0.567699,-35.795908 0.370561,-9.879664 1.25674,-19.73322 1.885102,-29.599836 1.109387,-7.096939 1.721246,-14.289717 3.328159,-21.290789 1.65063,-7.19159 5.806723,-17.11506 9.910901,-23.531386 3.462201,-5.412722 7.381003,-9.9642673 13.198494,-12.9015916 2.02176,-1.020811 4.36947,-1.1940896 6.55421,-1.791131 2.27426,1.1235132 5.1976,1.4228639 6.82271,3.3705341 6.01458,7.2083725 5.80055,19.3180955 4.92831,27.5288405 -2.77319,26.104573 -14.38161,50.067417 -26.16452,73.074217 -10.292754,16.01685 -13.337636,23.21236 -26.675411,35.76933 -4.909873,4.62245 -11.211159,9.22868 -18.130203,10.45191 -1.014013,0.17933 -7.859143,-0.35679 -9.597947,-0.48136 -0.155759,-0.0691 -1.131956,2.13382 -0.976189,2.20285 z" />
  </g>
</svg>
