<svg xmlns="http://www.w3.org/2000/svg" width="210mm" height="297mm" viewBox="0 0 210 297"><path d="M23.963 74.795a973654.51 973654.51 0 0 0 40.362 20.003c13.454 6.668 8.615 15.15 11.446 23.338 3.355 9.704 9.42 36.25 10.898 43.873 1.472 7.592-.115 4.097 1.15 16.972.955 9.712 5.623 5.557 8.434 8.334 2.81 2.778-.401.557-.602.834-.202.277 28.916-3.334 28.916-3.334l43.373 11.669 16.868 10.835-15.094-7.468-6.948-2.856-25.38-6.602-9.343-3.656-15.603.067-10.765 1.345 1.807 3.334 10.844 8.335-15.06-8.335-15.664-4.168-6.024-5 8.616 4.563v-9.911l.422-7.312-1.906-14.08-8.351-26.787-1.69-8.086-2.862-16.6-2.089-6.833-8.102-1.69-5.91-6.577-14.083-4.858-8.277-3.714c-8.07-2.649-6.255-3.757-9.383-5.635z" style="fill:#0284C7;stroke-width:.516364"/></svg>